<svg width="17" height="14" viewBox="0 0 17 14" fill="none" xmlns="http://www.w3.org/2000/svg">
<path d="M14.632 0.722168H1.62597C1.19595 0.723756 0.784118 0.895831 0.480798 1.20065C0.177479 1.50547 0.00743686 1.91815 0.00796938 2.34817L-3.05176e-05 12.1032C0.00128824 12.534 0.173022 12.9468 0.477671 13.2515C0.782319 13.5561 1.19513 13.7278 1.62597 13.7292H14.632C15.0628 13.7278 15.4756 13.5561 15.7803 13.2515C16.0849 12.9468 16.2567 12.534 16.258 12.1032V2.34817C16.2567 1.91733 16.0849 1.50452 15.7803 1.19987C15.4756 0.89522 15.0628 0.723487 14.632 0.722168ZM14.632 3.97417L8.13197 8.03917L1.63197 3.97417V2.34817L8.13197 6.41317L14.632 2.34817V3.97417Z" fill="white"/>
</svg>
